<svg xmlns="http://www.w3.org/2000/svg" viewBox="0 0 223 46" enable-background="new 0 0 223 46"><g><g fill-rule="evenodd" clip-rule="evenodd"><path fill="#fff" d="M220.83 27.2h-4.5V15.34c0-2.47-1.1-3.7-3.3-3.7-1.27 0-2.3.46-3.05 1.4-.76.93-1.14 2.32-1.14 4.17v10h-4.57V15.34c0-2.5-1.03-3.76-3.08-3.76-1.25 0-2.3.5-3.15 1.52-.85 1-1.28 2.37-1.28 4.1v10h-4.44V8.15h4.18v4.06c1.37-2.97 3.5-4.46 6.37-4.46 2.8 0 4.64 1.5 5.48 4.46 1.53-2.97 3.66-4.46 6.36-4.46 1.85 0 3.33.57 4.45 1.72s1.68 2.57 1.68 4.27V27.2zm-40.36-3.14c2.9 0 4.35-2.16 4.35-6.48 0-1.95-.35-3.5-1.04-4.62-.7-1.13-1.76-1.7-3.2-1.7-1.48 0-2.58.6-3.3 1.75-.72 1.18-1.08 2.72-1.08 4.65 0 2.08.38 3.66 1.14 4.76.77 1.1 1.8 1.66 3.13 1.66zm-.15 3.55c-2.82 0-4.98-1-6.46-3.03-1.5-2.03-2.23-4.35-2.23-6.97 0-2.82.82-5.17 2.46-7.05 1.63-1.88 3.8-2.82 6.5-2.82 2.55 0 4.65.92 6.3 2.74 1.64 1.83 2.46 4.2 2.46 7.12 0 3-.85 5.42-2.56 7.25-1.7 1.84-3.86 2.75-6.48 2.76zm-13.5-7.4l3.7.38c-.47 2.4-1.4 4.16-2.77 5.3-1.37 1.16-3.03 1.72-4.97 1.73-2.63 0-4.65-.95-6.07-2.87-1.4-1.92-2.12-4.27-2.12-7.05 0-2.88.77-5.25 2.32-7.12 1.55-1.88 3.62-2.82 6.2-2.82 4.16 0 6.63 2.2 7.43 6.58l-3.7.5c-.33-2.36-1.5-3.54-3.5-3.54-1.46 0-2.52.64-3.18 1.92-.66 1.28-1 2.82-1 4.64 0 1.93.35 3.4 1.04 4.45.67 1.03 1.63 1.56 2.87 1.56 1.88 0 3.14-1.23 3.75-3.66zm-14.95 2.06v4.95h-4.67v-4.94h4.67zm-26.25-.5l5.96-.8c.34 1.38 1.7 2.08 4.06 2.08 1.96 0 2.94-.38 2.94-1.13 0-.32-.2-.57-.57-.76-.37-.18-1.27-.37-2.68-.55-3.93-.55-6.37-1.4-7.34-2.55-.97-1.15-1.46-2.43-1.46-3.84 0-1.96.82-3.55 2.46-4.76 1.64-1.22 3.8-1.82 6.47-1.82 4.67 0 7.65 1.68 8.94 5.03l-5.7 1.08c-.54-1.13-1.66-1.7-3.38-1.7-.8 0-1.42.1-1.82.33-.4.23-.6.44-.6.66 0 .63.6 1 1.82 1.15 3.15.35 5.3.7 6.4 1.08 1.13.36 2.1 1.03 2.9 2 .78.97 1.18 2.15 1.18 3.52 0 2.1-.88 3.77-2.64 5-1.76 1.24-4.18 1.86-7.27 1.86-5.22-.03-8.44-1.98-9.68-5.87zm-5 5.45v-8.83c0-2.8 1.25-4.2 3.74-4.2.4 0 .88.07 1.4.2v-6.7c-.45-.04-.82-.07-1.08-.07-2.6 0-4.27 1.44-4.98 4.3V8h-6.3v19.2h7.23zm-17.42-8.96c-3.2.34-4.8 1.36-4.8 3.07 0 1.16.63 1.74 1.9 1.74.8 0 1.48-.24 2.05-.72.56-.48.84-1.53.84-3.16v-.92zm7.82 8.97h-7.16c-.18-.8-.27-1.7-.27-2.68-1.37 2.05-3.43 3.08-6.2 3.08-2.26 0-3.95-.58-5.08-1.73-1.13-1.16-1.7-2.48-1.7-3.98 0-2.03.93-3.67 2.78-4.92 1.84-1.25 5.1-2 9.8-2.26v-.44c0-.85-.18-1.42-.56-1.7-.38-.28-.94-.42-1.68-.42-1.73 0-2.7.7-2.9 2.13l-6.88-.67C92.16 9.6 95.5 7.6 101.2 7.6c1.55 0 2.97.15 4.26.46 1.3.3 2.32.8 3.08 1.44.75.66 1.26 1.35 1.52 2.08s.4 2.14.4 4.22v7.67c-.02 1.46.17 2.7.56 3.74zm-27-7.76l6.42.55c-.3 2.24-1.24 4.07-2.82 5.48-1.6 1.4-3.68 2.12-6.3 2.12-2.93 0-5.32-.92-7.15-2.77-1.84-1.84-2.75-4.2-2.75-7.1 0-2.94.9-5.36 2.73-7.27 1.82-1.9 4.2-2.86 7.1-2.86 2.6 0 4.7.72 6.32 2.17s2.56 3.28 2.8 5.5l-6.6.54c-.3-2.03-1.06-3.05-2.32-3.05-.8 0-1.4.37-1.77 1.1-.37.73-.56 2-.56 3.84 0 1.56.2 2.72.56 3.48.37.75 1.02 1.13 1.94 1.13 1.34 0 2.15-.95 2.4-2.86zM70.88 8v4.86h-3.83v7.08c0 .97.18 1.55.55 1.73.36.2.74.28 1.13.28.6 0 1.32-.1 2.15-.3V27c-1.48.28-2.95.43-4.38.43-2.32 0-4.02-.5-5.1-1.5-1.1-1-1.64-2.6-1.64-4.76l.02-2.26v-6.07h-2.86V8h2.86l.12-6.28 7.16-.12v6.38h3.82zM56 27.2h-7.53V15.1c0-1-.15-1.62-.46-1.9-.3-.28-.68-.42-1.14-.42-1.37 0-2.05.96-2.05 2.88V27.2h-7.53V8h7v2.7c1.03-2.06 2.88-3.1 5.52-3.1 1.4 0 2.56.27 3.53.8.96.55 1.65 1.23 2.06 2.1.4.84.6 2.32.6 4.42v12.3zM27.73 15.3c0-1.28-.27-2.15-.77-2.6-.5-.43-1.13-.65-1.88-.65-1.77 0-2.65 1.08-2.65 3.25h5.3zm.55 5l7 .46c-.4 1.9-1.48 3.5-3.18 4.84-1.7 1.33-4.02 2-6.93 2-3.24 0-5.8-.93-7.74-2.8-1.93-1.87-2.9-4.2-2.9-6.96 0-2.88.96-5.3 2.86-7.27C19.3 8.6 21.82 7.6 25 7.6c3.07 0 5.55.93 7.45 2.8 1.9 1.85 2.84 4.4 2.84 7.6 0 .25-.02.62-.03 1.1H22.42c.03 1.2.24 2.1.64 2.7.4.6 1.17.88 2.3.88 1.65 0 2.62-.8 2.9-2.4zM9 27.2H1.75V8h6.3v3.92c.72-2.88 2.37-4.3 4.98-4.3.26 0 .63.02 1.1.07v6.68c-.54-.12-1-.2-1.42-.2-2.5 0-3.73 1.4-3.73 4.2v8.83z"/><path fill="#FBA617" d="M1.07 29.96h143.9v13.7H1.08z"/></g></g></svg>